<svg id="visual" viewBox="0 0 1920 500" width="1920" height="500" xmlns="http://www.w3.org/2000/svg" xmlns:xlink="http://www.w3.org/1999/xlink" version="1.1"><path d="M0 294L40 296.8C80 299.7 160 305.3 240 304C320 302.7 400 294.3 480 291.5C560 288.7 640 291.3 720 271.8C800 252.3 880 210.7 960 207.2C1040 203.7 1120 238.3 1200 252C1280 265.7 1360 258.3 1440 249.7C1520 241 1600 231 1680 220.2C1760 209.3 1840 197.7 1880 191.8L1920 186L1920 501L1880 501C1840 501 1760 501 1680 501C1600 501 1520 501 1440 501C1360 501 1280 501 1200 501C1120 501 1040 501 960 501C880 501 800 501 720 501C640 501 560 501 480 501C400 501 320 501 240 501C160 501 80 501 40 501L0 501Z" fill="#c2410c"></path><path d="M0 244L40 241.3C80 238.7 160 233.3 240 232.2C320 231 400 234 480 237.8C560 241.7 640 246.3 720 263.3C800 280.3 880 309.7 960 321.8C1040 334 1120 329 1200 324.7C1280 320.3 1360 316.7 1440 305.8C1520 295 1600 277 1680 268.5C1760 260 1840 261 1880 261.5L1920 262L1920 501L1880 501C1840 501 1760 501 1680 501C1600 501 1520 501 1440 501C1360 501 1280 501 1200 501C1120 501 1040 501 960 501C880 501 800 501 720 501C640 501 560 501 480 501C400 501 320 501 240 501C160 501 80 501 40 501L0 501Z" fill="#c84f09"></path><path d="M0 301L40 298.5C80 296 160 291 240 300.7C320 310.3 400 334.7 480 340.8C560 347 640 335 720 331C800 327 880 331 960 338.3C1040 345.7 1120 356.3 1200 357.3C1280 358.3 1360 349.7 1440 342.2C1520 334.7 1600 328.3 1680 329.2C1760 330 1840 338 1880 342L1920 346L1920 501L1880 501C1840 501 1760 501 1680 501C1600 501 1520 501 1440 501C1360 501 1280 501 1200 501C1120 501 1040 501 960 501C880 501 800 501 720 501C640 501 560 501 480 501C400 501 320 501 240 501C160 501 80 501 40 501L0 501Z" fill="#ce5d07"></path><path d="M0 371L40 367.8C80 364.7 160 358.3 240 354.8C320 351.3 400 350.7 480 349.8C560 349 640 348 720 359.7C800 371.3 880 395.7 960 395.5C1040 395.3 1120 370.7 1200 373.3C1280 376 1360 406 1440 405C1520 404 1600 372 1680 366.7C1760 361.3 1840 382.7 1880 393.3L1920 404L1920 501L1880 501C1840 501 1760 501 1680 501C1600 501 1520 501 1440 501C1360 501 1280 501 1200 501C1120 501 1040 501 960 501C880 501 800 501 720 501C640 501 560 501 480 501C400 501 320 501 240 501C160 501 80 501 40 501L0 501Z" fill="#d46a06"></path><path d="M0 411L40 411.2C80 411.3 160 411.7 240 420.8C320 430 400 448 480 446.5C560 445 640 424 720 415.2C800 406.3 880 409.7 960 410.8C1040 412 1120 411 1200 408.8C1280 406.7 1360 403.3 1440 400.8C1520 398.3 1600 396.7 1680 401.3C1760 406 1840 417 1880 422.5L1920 428L1920 501L1880 501C1840 501 1760 501 1680 501C1600 501 1520 501 1440 501C1360 501 1280 501 1200 501C1120 501 1040 501 960 501C880 501 800 501 720 501C640 501 560 501 480 501C400 501 320 501 240 501C160 501 80 501 40 501L0 501Z" fill="#d97706"></path></svg>